<svg width="1127" height="179" viewBox="0 0 1127 179" fill="none" xmlns="http://www.w3.org/2000/svg">
<g clip-path="url(#clip0_1174_1563)">
<mask id="mask0_1174_1563" style="mask-type:luminance" maskUnits="userSpaceOnUse" x="-191" y="-84" width="1514" height="353">
<path d="M1323 -84H-191V269H1323V-84Z" fill="white"/>
</mask>
<g mask="url(#mask0_1174_1563)">
<path d="M1323 -84H-191V269H1323V-84Z" fill="white"/>
<path d="M204.428 50.1055H230.22V141.29H204.428V50.1055Z" fill="#073C71"/>
<path d="M335.326 50.1055V141.29H314.093L273.842 92.7015V141.29H248.57V50.1055H269.803L310.055 98.6935V50.1055H335.326Z" fill="#073C71"/>
<path d="M372.929 70.5565H344.922V50.1055H426.598V70.5565H398.721V141.29H372.929V70.5565Z" fill="#073C71"/>
<path d="M509.415 121.359V141.29H436.207V50.1055H507.722V70.0355H461.739V85.4065H502.251V104.685H461.739V121.359H509.415Z" fill="#073C71"/>
<path d="M610.484 50.1055V141.29H589.251L549 92.7015V141.29H523.729V50.1055H544.961L585.214 98.6935V50.1055H610.484Z" fill="#073C71"/>
<path d="M660.722 143.113C653.341 143.113 646.176 142.201 639.229 140.378C632.281 138.554 626.636 136.123 622.294 133.083L630.761 114.064C634.843 116.757 639.576 118.928 644.96 120.578C650.345 122.228 655.642 123.053 660.852 123.053C670.753 123.053 675.703 120.578 675.703 115.628C675.703 113.022 674.27 111.112 671.404 109.896C668.625 108.593 664.109 107.247 657.856 105.858C650.996 104.381 645.264 102.818 640.662 101.168C636.059 99.4312 632.108 96.6962 628.807 92.9622C625.507 89.2272 623.857 84.1912 623.857 77.8512C623.857 72.2932 625.377 67.3002 628.417 62.8712C631.456 58.3552 635.972 54.7942 641.964 52.1892C648.043 49.5842 655.468 48.2812 664.239 48.2812C670.232 48.2812 676.137 48.9762 681.955 50.3652C687.774 51.6682 692.898 53.6222 697.326 56.2272L689.38 75.3763C680.696 70.6863 672.272 68.3422 664.109 68.3422C658.985 68.3422 655.251 69.1232 652.906 70.6862C650.562 72.1632 649.389 74.1172 649.389 76.5482C649.389 78.9802 650.779 80.8042 653.558 82.0192C656.337 83.2352 660.809 84.4942 666.975 85.7972C673.922 87.2732 679.654 88.8802 684.17 90.6172C688.772 92.2672 692.724 94.9592 696.024 98.6932C699.411 102.341 701.104 107.334 701.104 113.674C701.104 119.145 699.584 124.095 696.545 128.524C693.505 132.953 688.946 136.513 682.867 139.205C676.788 141.811 669.407 143.113 660.722 143.113Z" fill="#073C71"/>
<path d="M713.018 50.1055H738.811V141.29H713.018V50.1055Z" fill="#073C71"/>
<path d="M849.39 50.1055L810.31 141.29H784.913L745.964 50.1055H773.84L798.591 109.505L823.86 50.1055H849.39Z" fill="#073C71"/>
<path d="M927.94 121.359V141.29H854.73V50.1055H926.25V70.0355H880.26V85.4065H920.781V104.685H880.26V121.359H927.94Z" fill="#073C71"/>
<path fill-rule="evenodd" clip-rule="evenodd" d="M79.0336 38.1905L79.0386 38.1995C81.0076 42.4365 80.3706 47.4645 77.3226 51.0805L28.0586 109.535V121.56C28.0586 137.275 28.0586 145.132 31.1166 151.134C33.8066 156.413 38.0986 160.706 43.3786 163.396C49.3806 166.454 57.2376 166.454 72.9516 166.454H126.264C141.978 166.454 149.835 166.454 155.837 163.396C161.117 160.706 165.409 156.413 168.099 151.134C171.158 145.132 171.158 137.275 171.158 121.56V68.2495C171.158 52.5355 171.158 44.6785 168.099 38.6755C165.409 33.3965 161.117 29.1035 155.837 26.4135C149.835 23.3555 141.978 23.3555 126.264 23.3555H72.9516C70.7626 23.3555 68.7256 23.3555 66.8246 23.3635L61.8506 31.2115H68.0816C72.7886 31.2115 77.0536 33.9415 79.0336 38.1905ZM114.641 82.6065H146.189V102.748H146.144V123.959H146.188V146.773H60.6346V123.959H86.3006V101.144H114.641V82.6065ZM126.754 42.2395L125.859 47.8345L134.967 49.2915L51.2576 110.108L54.5776 114.707L138.286 53.8895L136.825 63.0245L142.402 63.9175L145.393 45.2205L126.754 42.2395Z" fill="url(#paint0_linear_1174_1563)"/>
<path d="M28.0586 93.9855L69.6596 44.6235C69.8156 44.4385 69.9346 44.2315 70.0156 44.0125C70.2046 43.5035 70.1876 42.9305 69.9516 42.4215C69.6126 41.6955 68.8846 41.2305 68.0816 41.2305H43.6346L28.0586 69.7585V93.9855Z" fill="url(#paint1_linear_1174_1563)"/>
<path d="M69.9517 42.423C69.6127 41.697 68.8847 41.232 68.0817 41.232H43.6347L67.7637 3.1644C68.1667 2.5296 68.1907 1.7256 67.8277 1.068C67.4647 0.408301 66.7717 0 66.0207 0H33.0107C32.2287 0 31.5147 0.441099 31.1647 1.14L0.217733 62.984C-0.102267 63.621 -0.0672708 64.38 0.307729 64.988C0.685729 65.596 1.34773 65.967 2.06373 65.967H23.2787L0.161733 120.827C-0.232267 121.765 0.11773 122.854 0.98673 123.386C1.32073 123.59 1.69173 123.688 2.06173 123.688C2.65373 123.688 3.23773 123.435 3.64173 122.957L69.6597 44.625C70.1767 44.011 70.2897 43.151 69.9517 42.423Z" fill="url(#paint2_linear_1174_1563)"/>
<path d="M1107.82 77.2164C1107.82 68.6164 1106.59 64.3163 1104.15 64.3163C1102.61 64.3163 1100.57 65.9454 1098.04 69.2054C1095.5 72.3734 1092.97 76.4023 1090.43 81.2903C1087.9 86.0883 1085.73 91.7474 1083.92 98.2654C1082.11 104.783 1081.2 110.939 1081.2 116.733C1081.2 125.424 1082.65 129.77 1085.55 129.77C1087.99 129.77 1090.98 126.782 1094.51 120.807C1098.04 114.741 1101.12 107.499 1103.74 99.0804C1106.46 90.5704 1107.82 83.2824 1107.82 77.2164ZM1115.42 120.535C1111.98 127.778 1107.59 133.889 1102.25 138.868C1096.91 143.757 1091.16 146.201 1085 146.201C1078.85 146.201 1073.32 142.987 1068.44 136.559C1063.64 130.041 1061.24 123.025 1061.24 115.511C1061.24 107.906 1062.55 99.8044 1065.18 91.2034C1067.8 82.5134 1071.15 74.9534 1075.23 68.5264C1079.3 62.0074 1083.87 56.7113 1088.94 52.6373C1094.1 48.5643 1099.08 46.5273 1103.88 46.5273C1111.03 46.5273 1116.69 49.0613 1120.85 54.1313C1125.02 59.2013 1127.1 66.4433 1127.1 75.8593C1127.1 82.2863 1126.01 89.5293 1123.84 97.5863C1121.76 105.643 1118.95 113.293 1115.42 120.535Z" fill="#F97316"/>
<path d="M1044.09 148.643C1041.19 148.643 1037.93 146.878 1034.31 143.347C1030.78 139.816 1029.01 136.784 1029.01 134.249C1029.01 131.623 1030.14 129.043 1032.41 126.508C1034.67 123.883 1036.93 122.57 1039.2 122.57C1041.55 122.57 1044.18 125.105 1047.07 130.175C1049.97 135.245 1051.42 139.092 1051.42 141.717C1051.42 143.075 1050.56 144.569 1048.84 146.199C1047.21 147.828 1045.63 148.643 1044.09 148.643Z" fill="#F97316"/>
<path d="M971.05 99.7579V99.2139C971.05 98.1279 971.54 97.2229 972.54 96.4979C973.72 95.0499 976.02 93.0579 979.46 90.5229C982.9 87.9889 986.12 85.6349 989.11 83.4619C992.18 81.1989 994.95 78.5279 997.39 75.4499C999.83 72.3719 1001.06 69.3839 1001.06 66.4879C1001.06 65.4009 1000.65 64.8579 999.83 64.8579C996.85 64.8579 992.59 66.3519 987.07 69.3389C981.55 72.2359 978.02 73.6849 976.48 73.6849C974.94 73.6849 972.49 72.0999 969.14 68.9319C965.79 65.6729 964.12 63.2739 964.12 61.7349C964.12 59.1999 966.25 56.7549 970.5 54.4019C974.76 51.9569 979.6 50.1009 985.03 48.8339C990.55 47.4759 995.4 46.7969 999.56 46.7969C1005.54 46.7969 1010.7 48.9699 1015.04 53.3149C1019.48 57.6609 1021.7 62.2329 1021.7 67.0309C1021.7 71.8289 1019.66 76.8079 1015.59 81.9679C1011.6 87.0379 1006.62 91.6099 1000.65 95.6839C1013.32 98.4899 1019.66 104.239 1019.66 112.93C1019.66 118.452 1016.45 123.884 1010.02 129.225C1003.68 134.476 995.99 138.64 986.93 141.718C977.88 144.797 969.32 146.336 961.27 146.336C951.49 146.336 946.6 144.208 946.6 139.953C946.6 137.599 954.75 134.023 971.05 129.225C977.11 127.505 982.68 125.151 987.75 122.164C992.91 119.176 995.49 116.098 995.49 112.93C995.49 111.21 994.58 109.897 992.77 108.992C990.96 107.996 988.92 107.362 986.66 107.09C979.78 106.276 975.3 105.054 973.22 103.424C971.77 102.519 971.05 101.297 971.05 99.7579Z" fill="#F97316"/>
<path d="M1107.32 159.452C1103.86 158.856 1100.4 158.418 1096.94 157.909C1095.79 157.734 1094.64 157.734 1093.5 157.646C1091.02 157.453 1088.54 157.278 1086.06 157.085C1084.68 156.98 1083.3 156.857 1081.92 156.769C1081.51 156.752 1081.12 156.734 1080.72 156.734C1079.82 156.734 1078.92 156.769 1078.02 156.787C1073.93 156.787 1069.83 156.822 1065.74 156.822C1064.76 156.822 1063.79 156.892 1062.81 156.927C1060.4 157.015 1057.99 157.12 1055.58 157.208C1052.86 157.313 1050.14 157.348 1047.42 157.558C1043.01 157.874 1038.62 158.207 1034.21 158.523C1031.66 158.716 1029.11 158.821 1026.56 159.119C1022.17 159.645 1017.78 160.153 1013.39 160.662C1011 160.942 1008.59 161.17 1006.19 161.573C1001.65 162.327 997.11 163.064 992.57 163.818C990.15 164.221 987.72 164.519 985.3 165.133C980.78 166.272 976.26 167.412 971.74 168.551C970.76 168.797 969.78 169.042 968.81 169.288C966.85 169.779 964.91 170.55 962.96 171.199C962.84 171.251 962.72 171.304 962.6 171.339C962.37 171.532 962.16 171.883 961.99 172.391C961.73 173.145 961.58 174.197 961.58 175.266C961.58 176.336 961.73 177.388 961.99 178.159C962.22 178.843 962.62 179.474 962.96 179.352C965.31 178.563 967.66 177.739 970.01 177.142C972.2 176.599 974.38 176.038 976.56 175.494C978.94 174.898 981.32 174.302 983.7 173.706C984.66 173.461 985.62 173.145 986.58 172.987C990.29 172.374 994.01 171.777 997.72 171.181C1000.03 170.796 1002.35 170.427 1004.66 170.042C1005.61 169.884 1006.57 169.691 1007.53 169.568C1011.21 169.13 1014.89 168.727 1018.57 168.324C1020.8 168.078 1023.02 167.815 1025.26 167.57C1026.01 167.482 1026.75 167.377 1027.5 167.324C1031.48 167.044 1035.45 166.781 1039.42 166.518C1041.64 166.36 1043.85 166.22 1046.07 166.062C1046.86 166.009 1047.65 165.922 1048.44 165.904C1052.54 165.781 1056.63 165.659 1060.73 165.536C1063.29 165.448 1065.84 165.378 1068.4 165.396C1072.75 165.431 1077.1 165.448 1081.44 165.483C1082.3 165.483 1083.16 165.588 1084.02 165.676C1086.42 165.886 1088.82 166.097 1091.22 166.307C1093.02 166.465 1094.82 166.623 1096.63 166.781C1097.91 166.886 1099.18 167.166 1100.46 167.377C1104.22 167.973 1107.98 168.604 1111.73 169.288C1112.68 169.463 1113.63 169.673 1114.59 169.884C1115.61 170.094 1116.64 170.322 1117.65 170.655C1117.81 170.725 1117.97 170.813 1118.13 170.918C1118.53 171.164 1118.91 171.094 1119.28 170.48C1119.61 169.901 1119.86 168.937 1119.96 167.833C1120.18 165.518 1119.7 163.046 1118.92 162.397C1118.23 161.836 1117.52 161.608 1116.82 161.398C1116.33 161.258 1115.85 161.1 1115.37 160.96C1114.44 160.679 1113.5 160.539 1112.57 160.329C1110.83 159.943 1109.08 159.715 1107.32 159.417V159.452Z" fill="#7C3AED"/>
</g>
</g>
<defs>
<linearGradient id="paint0_linear_1174_1563" x1="31.7616" y1="0.000466022" x2="160.036" y2="159.835" gradientUnits="userSpaceOnUse">
<stop offset="0.260417" stop-color="#9B61FF"/>
<stop offset="1" stop-color="#5E00FF"/>
</linearGradient>
<linearGradient id="paint1_linear_1174_1563" x1="31.7616" y1="-0.00152925" x2="160.036" y2="159.833" gradientUnits="userSpaceOnUse">
<stop offset="0.260417" stop-color="#9B61FF"/>
<stop offset="1" stop-color="#5E00FF"/>
</linearGradient>
<linearGradient id="paint2_linear_1174_1563" x1="31.7617" y1="-2.49068e-06" x2="160.036" y2="159.835" gradientUnits="userSpaceOnUse">
<stop offset="0.260417" stop-color="#9B61FF"/>
<stop offset="1" stop-color="#5E00FF"/>
</linearGradient>
<clipPath id="clip0_1174_1563">
<rect width="1127" height="179" fill="white"/>
</clipPath>
</defs>
</svg>
